<svg width="1600" height="1000" viewBox="0 0 1600 1000" fill="none" xmlns="http://www.w3.org/2000/svg">
  <defs>
    <linearGradient id="bg" x1="0" y1="0" x2="0" y2="1000" gradientUnits="userSpaceOnUse">
      <stop stop-color="#111111"/>
      <stop offset="1" stop-color="#050505"/>
    </linearGradient>
    <linearGradient id="panel" x1="0" y1="0" x2="1100" y2="0" gradientUnits="userSpaceOnUse">
      <stop stop-color="#141414"/>
      <stop offset="1" stop-color="#191919"/>
    </linearGradient>
    <linearGradient id="diagonalFade" x1="420" y1="120" x2="1460" y2="920" gradientUnits="userSpaceOnUse">
      <stop stop-color="#FFFFFF" stop-opacity="0"/>
      <stop offset="0.45" stop-color="#FFFFFF" stop-opacity="0.11"/>
      <stop offset="1" stop-color="#FFFFFF" stop-opacity="0"/>
    </linearGradient>
    <radialGradient id="centerGlow" cx="0" cy="0" r="1" gradientUnits="userSpaceOnUse" gradientTransform="translate(780 180) rotate(90) scale(180 520)">
      <stop stop-color="#FFFFFF" stop-opacity="0.08"/>
      <stop offset="1" stop-color="#FFFFFF" stop-opacity="0"/>
    </radialGradient>
    <filter id="blurGlow" x="-30%" y="-30%" width="160%" height="160%">
      <feGaussianBlur stdDeviation="18"/>
    </filter>
  </defs>

  <rect width="1600" height="1000" fill="url(#bg)"/>
  <ellipse cx="780" cy="180" rx="420" ry="180" fill="url(#centerGlow)"/>

  <g opacity="0.7">
    <path d="M990 -120L1600 490" stroke="url(#diagonalFade)" stroke-width="2"/>
    <path d="M960 -90L1600 550" stroke="url(#diagonalFade)" stroke-width="2"/>
    <path d="M930 -60L1600 610" stroke="url(#diagonalFade)" stroke-width="2"/>
    <path d="M900 -30L1600 670" stroke="url(#diagonalFade)" stroke-width="2"/>
    <path d="M870 0L1600 730" stroke="url(#diagonalFade)" stroke-width="2"/>
    <path d="M840 30L1600 790" stroke="url(#diagonalFade)" stroke-width="2"/>
    <path d="M810 60L1600 850" stroke="url(#diagonalFade)" stroke-width="2"/>
  </g>

  <g>
    <rect x="420" y="24" width="820" height="86" rx="34" fill="#101010" stroke="#272727"/>
    <rect x="448" y="42" width="180" height="54" rx="24" fill="#171717" stroke="#353535"/>
    <clipPath id="avatarClip">
      <circle cx="487" cy="69" r="22"/>
    </clipPath>
    <circle cx="487" cy="69" r="22" fill="#3B2B27"/>
    <g clip-path="url(#avatarClip)">
      <rect x="465" y="47" width="44" height="44" fill="#70453B"/>
      <circle cx="487" cy="65" r="10" fill="#E7C7B6"/>
      <path d="M474 58C480 48 494 48 500 58V64H474V58Z" fill="#171717"/>
      <rect x="478" y="75" width="18" height="16" rx="8" fill="#1A1A1A"/>
      <rect x="470" y="83" width="34" height="10" rx="5" fill="#412720"/>
    </g>
    <text x="525" y="63" fill="#7E7E7E" font-size="11" font-family="Arial, Helvetica, sans-serif" font-weight="700" letter-spacing="4">HRITHIK</text>
    <text x="525" y="86" fill="#F5F5F5" font-size="18" font-family="Arial, Helvetica, sans-serif" font-weight="700">Parihar</text>

    <g font-family="Arial, Helvetica, sans-serif" font-size="16" font-weight="500">
      <rect x="646" y="42" width="94" height="50" rx="24" fill="#F5F5F5"/>
      <text x="693" y="74" text-anchor="middle" fill="#111111" font-weight="700">Home</text>
      <text x="778" y="74" fill="#BDBDBD">About</text>
      <text x="854" y="74" fill="#BDBDBD">Skills</text>
      <text x="926" y="74" fill="#BDBDBD">Projects</text>
      <text x="1015" y="74" fill="#BDBDBD">Certs</text>
      <text x="1086" y="74" fill="#BDBDBD">Training</text>
      <text x="1178" y="74" fill="#BDBDBD">Education</text>
      <text x="1286" y="74" fill="#BDBDBD">Contact</text>
    </g>

    <circle cx="1272" cy="67" r="24" stroke="#3A3A3A"/>
    <circle cx="1272" cy="67" r="4" stroke="#B9B9B9" stroke-width="2"/>
    <path d="M1272 52V46M1272 88V82M1287 67H1293M1251 67H1257M1282.6 56.4L1286.8 52.2M1257.2 81.8L1261.4 77.6M1282.6 77.6L1286.8 81.8M1257.2 52.2L1261.4 56.4" stroke="#B9B9B9" stroke-width="1.6" stroke-linecap="round"/>
  </g>

  <g font-family="Arial, Helvetica, sans-serif">
    <text x="335" y="382" fill="#F4F4F4" font-size="180" font-weight="800" letter-spacing="2">HRITHIK</text>
    <text x="290" y="675" fill="none" stroke="#6F6F6F" stroke-width="2" font-size="168" font-weight="300" letter-spacing="2">PARIHAR</text>
  </g>

  <line x1="1510" y1="287" x2="1510" y2="373" stroke="#5F5F5F" opacity="0.45"/>
  <line x1="1510" y1="688" x2="1510" y2="778" stroke="#5F5F5F" opacity="0.45"/>
  <g opacity="0.8" stroke="#8E8E8E" stroke-width="2" stroke-linecap="round" stroke-linejoin="round">
    <path d="M1506 420C1508 412 1516 412 1518 420V428C1518 432 1515 435 1511 435C1507 435 1504 432 1504 428V420H1518"/>
    <path d="M1506 485V501C1506 505 1509 508 1513 508H1518"/>
    <path d="M1518 485V501"/>
    <path d="M1506 485H1518"/>
    <path d="M1505 563C1505 556 1510 551 1517 551H1518"/>
    <path d="M1505 563C1505 570 1510 575 1517 575H1518"/>
    <path d="M1518 551L1509 563L1518 575"/>
    <rect x="1504" y="620" width="16" height="16" rx="4"/>
    <circle cx="1512" cy="628" r="4.2"/>
  </g>

  <text x="770" y="724" fill="#C7C7C7" font-size="15" font-family="Arial, Helvetica, sans-serif" font-weight="500" letter-spacing="5">SCROLL</text>
  <line x1="800" y1="740" x2="800" y2="792" stroke="#5B5B5B" opacity="0.5"/>

  <text x="584" y="816" fill="#D6D6D6" font-size="18" font-family="Arial, Helvetica, sans-serif" font-weight="500" letter-spacing="6">I DESIGN AND BUILD PRODUCTS THAT</text>
  <text x="605" y="892" fill="#F4F4F4" font-size="62" font-family="Georgia, 'Times New Roman', serif" font-style="italic">deliver real impact.</text>

  <g>
    <rect x="688" y="926" width="224" height="64" rx="32" fill="#F4F4F4" filter="url(#blurGlow)"/>
    <text x="800" y="967" text-anchor="middle" fill="#121212" font-size="20" font-family="Arial, Helvetica, sans-serif" font-weight="700">Let's Collaborate</text>
    <path d="M878 958L893 958M893 958L886 951M893 958L886 965" stroke="#121212" stroke-width="2.6" stroke-linecap="round" stroke-linejoin="round"/>
  </g>

  <line x1="0" y1="950" x2="1600" y2="950" stroke="#222222"/>
  <line x1="295" y1="950" x2="295" y2="1000" stroke="#222222"/>
  <line x1="1304" y1="950" x2="1304" y2="1000" stroke="#222222"/>

  <g font-family="Arial, Helvetica, sans-serif">
    <text x="38" y="980" fill="#E9E9E9" font-size="14" font-weight="700" letter-spacing="4">BASED IN INDIA</text>
    <text x="38" y="998" fill="#8A8A8A" font-size="12" font-weight="500" letter-spacing="2">AVAILABLE WORLDWIDE</text>

    <text x="1398" y="980" fill="#E9E9E9" font-size="14" font-weight="700" letter-spacing="4">FULL STACK DEV,</text>
    <text x="1477" y="998" text-anchor="middle" fill="#8A8A8A" font-size="12" font-weight="500" letter-spacing="2">&amp; BUILDER</text>
  </g>
</svg>
