<svg width="1600" height="1000" viewBox="0 0 1600 1000" fill="none" xmlns="http://www.w3.org/2000/svg">
  <defs>
    <linearGradient id="heroFade" x1="0" y1="0" x2="0" y2="620" gradientUnits="userSpaceOnUse">
      <stop stop-color="#9B7261"/>
      <stop offset="1" stop-color="#C6B29D"/>
    </linearGradient>
    <linearGradient id="pageBg" x1="0" y1="620" x2="0" y2="1000" gradientUnits="userSpaceOnUse">
      <stop stop-color="#EFEFF1"/>
      <stop offset="1" stop-color="#E8E8EB"/>
    </linearGradient>
    <filter id="cardShadow" x="-20%" y="-20%" width="140%" height="160%">
      <feDropShadow dx="0" dy="10" stdDeviation="16" flood-color="#000000" flood-opacity="0.12"/>
    </filter>
  </defs>

  <rect width="1600" height="620" fill="#D94E57"/>
  <rect y="620" width="1600" height="380" fill="url(#pageBg)"/>

  <g font-family="Arial, Helvetica, sans-serif">
    <g transform="translate(420 18)">
      <rect x="0" y="0" width="72" height="44" rx="10" fill="#C9343D" stroke="#FFFFFF" stroke-width="3"/>
      <text x="36" y="28" text-anchor="middle" fill="#FFFFFF" font-size="18" font-weight="700">redBus</text>
      <circle cx="18" cy="42" r="7" fill="#D94E57" stroke="#FFFFFF" stroke-width="3"/>
      <circle cx="54" cy="42" r="7" fill="#D94E57" stroke="#FFFFFF" stroke-width="3"/>
    </g>

    <text x="516" y="54" fill="#FFFFFF" font-size="20" font-weight="700">BUS TICKETS</text>
    <text x="658" y="54" fill="#FFFFFF" font-size="20" font-weight="700">rPool</text>
    <text x="720" y="46" fill="#FFFFFF" font-size="14" font-weight="700">New</text>
    <text x="792" y="54" fill="#FFFFFF" font-size="20" font-weight="700">BUS HIRE</text>
    <text x="1196" y="54" fill="#FFFFFF" font-size="20" font-weight="500">MANAGE BOOKING</text>
    <path d="M1372 46L1380 54L1388 46" stroke="#FFFFFF" stroke-width="3" stroke-linecap="round" stroke-linejoin="round"/>
    <circle cx="1442" cy="44" r="18" fill="#FFFFFF"/>
    <circle cx="1442" cy="37" r="7" fill="#D94E57"/>
    <path d="M1430 53C1430 47 1435 43 1442 43C1449 43 1454 47 1454 53" fill="#D94E57"/>
    <path d="M1491 46L1499 54L1507 46" stroke="#FFFFFF" stroke-width="3" stroke-linecap="round" stroke-linejoin="round"/>
  </g>

  <g filter="url(#cardShadow)">
    <rect x="34" y="118" width="1532" height="388" fill="#FFFFFF" stroke="#D8D8D8" stroke-width="10"/>
  </g>
  <rect x="46" y="130" width="1508" height="364" fill="url(#heroFade)"/>

  <g opacity="0.9">
    <rect x="46" y="130" width="1508" height="364" fill="#000000" fill-opacity="0.12"/>
    <path d="M115 167C138 146 171 141 203 147C229 152 255 169 274 194V494H46V176C61 165 85 159 115 167Z" fill="#E6D8C7" fill-opacity="0.85"/>
    <path d="M120 180C141 162 170 158 197 163C219 167 241 181 257 202V494H58V188C75 178 96 173 120 180Z" fill="#F4ECE3"/>
    <rect x="78" y="178" width="174" height="316" fill="#CAB39E"/>
    <ellipse cx="125" cy="216" rx="28" ry="34" fill="#FFF1E5" opacity="0.25"/>
    <rect x="314" y="142" width="784" height="352" fill="#8B765F" fill-opacity="0.42"/>
    <ellipse cx="582" cy="212" rx="58" ry="82" fill="#2A221F" fill-opacity="0.6"/>
    <ellipse cx="766" cy="272" rx="72" ry="92" fill="#3B312C" fill-opacity="0.4"/>
    <rect x="916" y="132" width="248" height="362" fill="#D8CBBE" fill-opacity="0.72"/>
    <text x="1120" y="272" fill="#FFFFFF" font-size="30" font-family="Arial, Helvetica, sans-serif" font-weight="700">Journey</text>
    <text x="1120" y="320" fill="#FFFFFF" font-size="30" font-family="Arial, Helvetica, sans-serif" font-weight="700">for</text>
    <text x="1120" y="368" fill="#FFFFFF" font-size="30" font-family="Arial, Helvetica, sans-serif" font-weight="700">Dreams</text>
    <rect x="1078" y="188" width="38" height="138" rx="8" stroke="#FFFFFF" stroke-width="6"/>
    <rect x="1040" y="248" width="114" height="44" rx="10" stroke="#FFFFFF" stroke-width="6"/>
    <text x="1054" y="296" fill="#FFFFFF" font-size="52" font-family="Arial, Helvetica, sans-serif" font-weight="700">#</text>
  </g>

  <g filter="url(#cardShadow)">
    <rect x="152" y="272" width="330" height="46" fill="#FFFFFF"/>
    <rect x="482" y="272" width="330" height="46" fill="#FFFFFF"/>
    <rect x="812" y="272" width="312" height="46" fill="#FFFFFF"/>
    <rect x="1124" y="272" width="140" height="46" fill="#D94E57"/>
  </g>
  <g font-family="Arial, Helvetica, sans-serif">
    <text x="166" y="302" fill="#7A7A7A" font-size="18" font-weight="500">Source</text>
    <text x="496" y="302" fill="#7A7A7A" font-size="18" font-weight="500">Destination</text>
    <text x="826" y="302" fill="#1E1E1E" font-size="18" font-weight="500">dd/mm/yyyy</text>
    <rect x="1098" y="282" width="16" height="14" rx="2" stroke="#111111" stroke-width="2"/>
    <path d="M1102 276V286M1110 276V286" stroke="#111111" stroke-width="2" stroke-linecap="round"/>
    <text x="1194" y="303" text-anchor="middle" fill="#FFFFFF" font-size="18" font-weight="700">Search Bus</text>
  </g>

  <g filter="url(#cardShadow)">
    <rect x="482" y="468" width="642" height="74" fill="#FBF0D5"/>
  </g>
  <g font-family="Arial, Helvetica, sans-serif">
    <path d="M520 492L548 478L574 492V514C574 533 560 546 548 552C536 546 520 533 520 514V492Z" fill="#243E78"/>
    <path d="M534 513H562M548 499V527" stroke="#5FD29D" stroke-width="8" stroke-linecap="round"/>
    <text x="610" y="501" fill="#4C4C4C" font-size="15" font-weight="700">Introducing Safety+ Program</text>
    <text x="610" y="523" fill="#505050" font-size="14" font-weight="500">A unique certification program that ensures safety in</text>
    <text x="610" y="545" fill="#505050" font-size="14" font-weight="500">all buses</text>
    <rect x="968" y="510" width="124" height="32" fill="#D94E57"/>
    <text x="1030" y="531" text-anchor="middle" fill="#FFFFFF" font-size="14" font-weight="700">know More</text>
  </g>

  <g filter="url(#cardShadow)" font-family="Arial, Helvetica, sans-serif">
    <rect x="220" y="644" width="372" height="278" fill="#FFFFFF"/>
    <rect x="610" y="644" width="372" height="278" fill="#FFFFFF"/>
    <rect x="1000" y="644" width="372" height="278" fill="#FFFFFF"/>

    <text x="406" y="685" text-anchor="middle" fill="#777777" font-size="14" font-weight="500">save upto rs 150</text>
    <rect x="302" y="734" width="42" height="120" rx="8" stroke="#E76874" stroke-width="5"/>
    <rect x="266" y="782" width="114" height="40" rx="10" stroke="#E76874" stroke-width="5"/>
    <text x="278" y="831" fill="#E76874" font-size="44" font-weight="700">#</text>
    <text x="382" y="804" fill="#E76874" font-size="30" font-weight="700">Journey</text>
    <text x="382" y="844" fill="#E76874" font-size="30" font-weight="700">For</text>
    <text x="382" y="884" fill="#E76874" font-size="30" font-weight="700">Dreams</text>
    <text x="406" y="892" text-anchor="middle" fill="#6A6A6A" font-size="18" font-weight="500">Use code FIRST</text>

    <text x="796" y="685" text-anchor="middle" fill="#777777" font-size="14" font-weight="500">save upto rs 150</text>
    <text x="716" y="824" fill="#111111" font-size="34" font-weight="700">amazon</text>
    <text x="848" y="824" fill="#F4A623" font-size="34" font-weight="700">pay</text>
    <path d="M706 810C736 790 782 790 832 810" stroke="#111111" stroke-width="4" stroke-linecap="round"/>
    <path d="M694 860H888" stroke="#A49AD0" stroke-width="3" stroke-dasharray="18 16"/>
    <text x="796" y="892" text-anchor="middle" fill="#6A6A6A" font-size="18" font-weight="500">Use code FIRST</text>

    <text x="1186" y="685" text-anchor="middle" fill="#777777" font-size="14" font-weight="500">save upto rs 150</text>
    <text x="1186" y="742" text-anchor="middle" fill="#3D5586" font-size="18" font-weight="700">EARLY BIRD OFFER,</text>
    <text x="1186" y="826" text-anchor="middle" fill="#E66563" font-size="66" font-weight="700">10%</text>
    <text x="1186" y="862" text-anchor="middle" fill="#E66563" font-size="22" font-weight="700">DISCOUNT ON APSRTC BUSES</text>
    <text x="1186" y="892" text-anchor="middle" fill="#6A6A6A" font-size="18" font-weight="500">Use code FIRST</text>
  </g>
</svg>
